<mxfile host="app.diagrams.net" modified="2023-12-13T02:57:28.582Z" agent="Mozilla/5.0 (Windows NT 10.0; Win64; x64) AppleWebKit/537.36 (KHTML, like Gecko) Chrome/119.0.0.0 Safari/537.36" etag="lMWLQ-ra-ggpHVTVw1qJ" version="22.1.8" type="device">
  <diagram name="第 1 页" id="_YTDJVNFXxwEYgjmcoUo">
    <mxGraphModel dx="989" dy="517" grid="0" gridSize="10" guides="1" tooltips="1" connect="1" arrows="1" fold="1" page="1" pageScale="1" pageWidth="827" pageHeight="1169" math="0" shadow="0">
      <root>
        <mxCell id="0" />
        <mxCell id="1" parent="0" />
        <mxCell id="Nl2LT7XCubSBcv4QUK78-9" value="" style="group;movable=1;resizable=1;rotatable=1;deletable=1;editable=1;locked=0;connectable=1;" vertex="1" connectable="0" parent="1">
          <mxGeometry x="8" y="120" width="811" height="480" as="geometry" />
        </mxCell>
        <mxCell id="Nl2LT7XCubSBcv4QUK78-1" value="风险单工单交互流程图" style="swimlane;childLayout=stackLayout;resizeParent=1;resizeParentMax=0;startSize=20;html=1;container=0;movable=0;resizable=0;rotatable=0;deletable=0;editable=0;locked=1;connectable=0;" vertex="1" parent="Nl2LT7XCubSBcv4QUK78-9">
          <mxGeometry width="811" height="480" as="geometry" />
        </mxCell>
        <mxCell id="Nl2LT7XCubSBcv4QUK78-2" value="用户" style="swimlane;startSize=20;html=1;" vertex="1" parent="Nl2LT7XCubSBcv4QUK78-9">
          <mxGeometry y="20" width="120" height="460" as="geometry" />
        </mxCell>
        <mxCell id="Nl2LT7XCubSBcv4QUK78-3" value="风险单工单" style="swimlane;startSize=20;html=1;" vertex="1" parent="Nl2LT7XCubSBcv4QUK78-9">
          <mxGeometry x="240" y="20" width="311" height="460" as="geometry" />
        </mxCell>
        <mxCell id="Nl2LT7XCubSBcv4QUK78-4" value="vts后端" style="swimlane;startSize=20;html=1;" vertex="1" parent="Nl2LT7XCubSBcv4QUK78-9">
          <mxGeometry x="681" y="20" width="130" height="460" as="geometry" />
        </mxCell>
        <mxCell id="Nl2LT7XCubSBcv4QUK78-6" value="整车跟单" style="swimlane;startSize=20;html=1;" vertex="1" parent="Nl2LT7XCubSBcv4QUK78-9">
          <mxGeometry x="551" y="20" width="130" height="460" as="geometry" />
        </mxCell>
        <mxCell id="Nl2LT7XCubSBcv4QUK78-8" value="风险单配置" style="swimlane;startSize=20;html=1;" vertex="1" parent="Nl2LT7XCubSBcv4QUK78-9">
          <mxGeometry x="120" y="20" width="120" height="460" as="geometry" />
        </mxCell>
      </root>
    </mxGraphModel>
  </diagram>
</mxfile>
